<svg xmlns="http://www.w3.org/2000/svg" viewBox="0 0 540.24 540.02"><defs><style>.cls-1{fill:#d3af5f;}.cls-2{fill:#fff;}</style></defs><title>icons</title><g id="objects"><path class="cls-1" d="M516.66,461.57a3.92,3.92,0,0,1-1.73-1.37,3.75,3.75,0,0,1-.64-2.22,2.8,2.8,0,0,1,.88-2.32,3.14,3.14,0,0,1,2-.71,4.67,4.67,0,0,0-.93,1.44,4.28,4.28,0,0,0-.31,1.59,3.07,3.07,0,0,0,.89,2.26,3.44,3.44,0,0,0,2.56.9,5.55,5.55,0,0,0,2-.38,3.94,3.94,0,0,0,1.57-1.13,2.79,2.79,0,0,0,.61-1.79,2.85,2.85,0,0,0-.46-1.59,4.37,4.37,0,0,0-1.13-1.18c-.45-.32-1-.71-1.8-1.16a19.43,19.43,0,0,1-1.84-1.19,4.58,4.58,0,0,1-1.17-1.23,3,3,0,0,1-.47-1.67,5.47,5.47,0,0,1,.81-2.72,6.82,6.82,0,0,1,2.3-2.36,6,6,0,0,1,3.33-.95,2.06,2.06,0,0,1,2.37,2.26,7.12,7.12,0,0,1-.54,2.53,14.22,14.22,0,0,1-1.2,2.44.88.88,0,0,1-.75-1,3.36,3.36,0,0,1,.17-1c.12-.37.28-.82.49-1.36s.4-1.07.51-1.44a3.48,3.48,0,0,0,.17-1,1,1,0,0,0-.28-.72,1.49,1.49,0,0,0-1-.25,4.12,4.12,0,0,0-2.47.82,6.53,6.53,0,0,0-1.82,2,4.42,4.42,0,0,0-.68,2.15,2.17,2.17,0,0,0,.4,1.29,4,4,0,0,0,1,1,16.68,16.68,0,0,0,1.6,1,20.47,20.47,0,0,1,2,1.26,5.08,5.08,0,0,1,1.28,1.4,3.71,3.71,0,0,1,.53,2,4,4,0,0,1-.87,2.58,5.66,5.66,0,0,1-2.23,1.66,7.15,7.15,0,0,1-2.8.57A6.07,6.07,0,0,1,516.66,461.57Z" transform="translate(-290.88 -290.99)"/><path class="cls-1" d="M526.87,460.11a2,2,0,0,1-.45-1.36,8.57,8.57,0,0,1,.51-2.45,12.29,12.29,0,0,1,1.26-2.73c.51-.78,1-1.17,1.48-1.17a.48.48,0,0,1,.35.13.46.46,0,0,1,.15.36,4.59,4.59,0,0,1-.72,1.52,23.07,23.07,0,0,0-1.19,2.22,4.66,4.66,0,0,0-.44,1.87,1.63,1.63,0,0,0,.26,1.07,1.1,1.1,0,0,0,.85.28q1.76,0,3.48-3.46l.2.23a6.5,6.5,0,0,1-1.86,3,3.92,3.92,0,0,1-2.59,1.06A1.58,1.58,0,0,1,526.87,460.11Zm3.34-10a.63.63,0,0,1-.26-.55,1,1,0,0,1,.54-.81,2,2,0,0,1,1.1-.36c.5,0,.75.23.75.7a1.09,1.09,0,0,1-.46.82,1.56,1.56,0,0,1-1,.4A1.06,1.06,0,0,1,530.21,450.1Z" transform="translate(-290.88 -290.99)"/><path class="cls-1" d="M538.1,460.11a1.39,1.39,0,0,1-.4-1.05,2.79,2.79,0,0,1,.1-.69c.06-.26.14-.52.21-.78s.17-.55.24-.85a3.72,3.72,0,0,0,.1-.82q0-1.11-.9-1.11a2.71,2.71,0,0,0-1.8.91,11.58,11.58,0,0,0-1.67,2c-.49.74-1,1.63-1.66,2.67a1.94,1.94,0,0,1-.7-.13,1.12,1.12,0,0,1-.5-.37,4.21,4.21,0,0,1,.29-.81q.57-1.45.93-2.64a7.8,7.8,0,0,0,.38-2.11,1.56,1.56,0,0,1,.46-.33,1.39,1.39,0,0,1,.58-.15.53.53,0,0,1,.61.59,5.66,5.66,0,0,1-.2,1.19c-.14.57-.31,1.16-.52,1.8a15.28,15.28,0,0,1,2.3-2.83,3.58,3.58,0,0,1,2.4-1.15,1.41,1.41,0,0,1,1.25.6,2.44,2.44,0,0,1,.42,1.43,3.69,3.69,0,0,1-.12.95,7.58,7.58,0,0,1-.38,1c-.13.33-.24.62-.31.86a2.25,2.25,0,0,0-.11.72c0,.58.22.86.67.86a2.21,2.21,0,0,0,1.6-1,13.43,13.43,0,0,0,1.57-2.51l.25.3c-1.09,2.54-2.39,3.82-3.91,3.82A1.61,1.61,0,0,1,538.1,460.11Z" transform="translate(-290.88 -290.99)"/><path class="cls-1" d="M543.09,460.58a3.07,3.07,0,0,1-.7-2.15,6,6,0,0,1,.75-2.87,6.75,6.75,0,0,1,1.91-2.27,3.82,3.82,0,0,1,2.29-.87,1.45,1.45,0,0,1,1.23.48,1.9,1.9,0,0,1,.38,1.19,2.07,2.07,0,0,1-.31,1.16.92.92,0,0,1-.82.49.81.81,0,0,1-.66-.34,1.32,1.32,0,0,0,.59-.71,2.56,2.56,0,0,0,.25-1.07.63.63,0,0,0-.12-.43.46.46,0,0,0-.38-.14,2.42,2.42,0,0,0-1.64.92,8.09,8.09,0,0,0-1.47,2.22,6,6,0,0,0-.6,2.4,2.19,2.19,0,0,0,.39,1.34,1.47,1.47,0,0,0,1.26.53,4.21,4.21,0,0,0,2.73-1.13,7.27,7.27,0,0,0,2.06-3l.3.23a8.67,8.67,0,0,1-1.42,2.43,7.62,7.62,0,0,1-2,1.68,4.42,4.42,0,0,1-2.18.61A2.43,2.43,0,0,1,543.09,460.58Z" transform="translate(-290.88 -290.99)"/><path class="cls-1" d="M550.2,460.32a2.62,2.62,0,0,1-.71-1.89,5.78,5.78,0,0,1,.88-2.87,9,9,0,0,1,2.22-2.59,4.33,4.33,0,0,1,2.64-1.05,1.23,1.23,0,0,1,1.4,1.38,3.09,3.09,0,0,1-.84,2.07,6.43,6.43,0,0,1-2.14,1.57,8.15,8.15,0,0,1-2.62.74,3.12,3.12,0,0,0-.1.82,2.19,2.19,0,0,0,.41,1.35,1.62,1.62,0,0,0,1.38.55,4.39,4.39,0,0,0,2.78-1.16,8.92,8.92,0,0,0,2.28-2.85l.27.21a8.14,8.14,0,0,1-2.51,3.23,5.4,5.4,0,0,1-3.3,1.22A2.76,2.76,0,0,1,550.2,460.32Zm2.93-4a7.16,7.16,0,0,0,1.77-1.43,2.56,2.56,0,0,0,.73-1.73.59.59,0,0,0-.1-.39.44.44,0,0,0-.37-.13,2.45,2.45,0,0,0-1.52.7,7.55,7.55,0,0,0-1.52,1.79,7.74,7.74,0,0,0-1,2.15A12.35,12.35,0,0,0,553.13,456.3Z" transform="translate(-290.88 -290.99)"/><path class="cls-1" d="M563,461.36a1.53,1.53,0,0,1-.6-.52,4.14,4.14,0,0,0,.54,0,11.93,11.93,0,0,0,1.85-.19,15.89,15.89,0,0,0,.86-2.81c.27-1.17.58-2.66.92-4.48.25-1.39.48-2.5.68-3.33a6.13,6.13,0,0,1-2,1.13.45.45,0,0,1-.33-.1.57.57,0,0,1-.1-.4,11.08,11.08,0,0,0,1.66-1.16,16.8,16.8,0,0,0,1.93-1.79.71.71,0,0,1,.15.53,5.25,5.25,0,0,1-.2,1.06c-.08.34-.15.62-.19.85-.27,1.89-.64,3.81-1.09,5.74a24.28,24.28,0,0,1-1.51,4.64,4.15,4.15,0,0,1,.69-.05,2.72,2.72,0,0,1,1.13.2,1,1,0,0,1,.52.76,11.72,11.72,0,0,0-1.35-.09,14.45,14.45,0,0,0-1.57.09c-.59,0-1,.06-1.33.06A1.62,1.62,0,0,1,563,461.36Z" transform="translate(-290.88 -290.99)"/><path class="cls-1" d="M571.38,461.29a.83.83,0,0,1-.45-.77c0-.37.25-.63.75-.79v.43a1.16,1.16,0,0,0,.21.72.91.91,0,0,0,.76.27,2.57,2.57,0,0,0,1.91-1,8.53,8.53,0,0,0,1.5-2.49,16.83,16.83,0,0,0,1-3.17,3.75,3.75,0,0,1-1.28.82,4.36,4.36,0,0,1-1.56.29,3.25,3.25,0,0,1-2.32-.88,3.4,3.4,0,0,1-.93-2.59,4.68,4.68,0,0,1,.54-2.25,4,4,0,0,1,1.52-1.58,4.23,4.23,0,0,1,2.22-.58A3.15,3.15,0,0,1,578,449a5.43,5.43,0,0,1,.88,3.24,12.19,12.19,0,0,1-.79,4.19,10,10,0,0,1-2.21,3.65,4.43,4.43,0,0,1-3.26,1.47A2.37,2.37,0,0,1,571.38,461.29Zm5.23-7.05a3.41,3.41,0,0,0,.65-2.2,6.57,6.57,0,0,0-.48-2.65,1.69,1.69,0,0,0-1.66-1.1,2,2,0,0,0-1.43.59,3.84,3.84,0,0,0-1,1.49,5.53,5.53,0,0,0-.33,1.89,3.05,3.05,0,0,0,.64,2.09,2.11,2.11,0,0,0,1.6.7A2.38,2.38,0,0,0,576.61,454.24Z" transform="translate(-290.88 -290.99)"/><path class="cls-1" d="M581.05,461.29a.84.84,0,0,1-.44-.77c0-.37.25-.63.75-.79l0,.43a1.11,1.11,0,0,0,.22.72.91.91,0,0,0,.76.27,2.53,2.53,0,0,0,1.9-1,8.55,8.55,0,0,0,1.51-2.49,17.6,17.6,0,0,0,.95-3.17,3.8,3.8,0,0,1-1.29.82,4.35,4.35,0,0,1-1.55.29,3.27,3.27,0,0,1-2.33-.88,3.44,3.44,0,0,1-.92-2.59,4.68,4.68,0,0,1,.54-2.25,4,4,0,0,1,1.51-1.58,4.23,4.23,0,0,1,2.22-.58,3.16,3.16,0,0,1,2.77,1.24,5.5,5.5,0,0,1,.88,3.24,12.43,12.43,0,0,1-.79,4.19,10.09,10.09,0,0,1-2.21,3.65,4.44,4.44,0,0,1-3.26,1.47A2.43,2.43,0,0,1,581.05,461.29Zm5.23-7.05a3.36,3.36,0,0,0,.65-2.2,6.57,6.57,0,0,0-.48-2.65,1.68,1.68,0,0,0-1.65-1.1,2,2,0,0,0-1.43.59,3.63,3.63,0,0,0-1,1.49,5.53,5.53,0,0,0-.33,1.89,3,3,0,0,0,.64,2.09,2.11,2.11,0,0,0,1.6.7A2.35,2.35,0,0,0,586.28,454.24Z" transform="translate(-290.88 -290.99)"/><path class="cls-1" d="M594.21,461.28c-.54-.18-1.17-.42-1.89-.73l-.34-.14-.4-.16a3.88,3.88,0,0,1-2,.73,1.29,1.29,0,0,1-.83-.26.8.8,0,0,1-.33-.66c0-.55.43-.83,1.28-.83a10.11,10.11,0,0,1,1.8.24A14.31,14.31,0,0,0,593.7,457a16.29,16.29,0,0,0,1.75-3.23,8.56,8.56,0,0,0,.68-3.13,2.82,2.82,0,0,0-.49-1.83,1.64,1.64,0,0,0-1.32-.6,1.94,1.94,0,0,0-1.72,1,4.5,4.5,0,0,0-.62,2.48,3.34,3.34,0,0,0,0,.59,3.12,3.12,0,0,0,.16.57h-.08a1.65,1.65,0,0,1-.91-.49,1.58,1.58,0,0,1-.29-1,3.56,3.56,0,0,1,1.79-3.06,3.66,3.66,0,0,1,1.9-.49,2.54,2.54,0,0,1,1.45.41,2.61,2.61,0,0,1,1,1.12,3.55,3.55,0,0,1,.34,1.58,8.16,8.16,0,0,1-.81,3.37,14.45,14.45,0,0,1-1.79,2.95,14.8,14.8,0,0,1-2.36,2.48l.48.11a17.13,17.13,0,0,0,3.2.53,2,2,0,0,0,.6-.1,3.79,3.79,0,0,0,.7-.33,2.61,2.61,0,0,1-.65,1.27,1.5,1.5,0,0,1-1.1.4A4.45,4.45,0,0,1,594.21,461.28ZM590.9,460a4.29,4.29,0,0,0-1.3-.31.62.62,0,0,0-.45.13.36.36,0,0,0-.15.28.35.35,0,0,0,.19.31.77.77,0,0,0,.43.12A2.56,2.56,0,0,0,590.9,460Z" transform="translate(-290.88 -290.99)"/><path class="cls-1" d="M824.92,625.23c-.59-2-1.17-4-1.68-5.91l-.13-.4c-13.41-38.66-13.5-81.54-.25-114.7l.26-.68V503c4.79-13.22,7.32-25,7.73-35.89.45-12-4-23.18-12.13-30.76A82.34,82.34,0,0,0,807.24,428l-1.24-.8a156.47,156.47,0,0,0-18.61-10.39c-36.84-17.86-67.26-48.13-81.37-81l-.29-.68-.36-.36a157.67,157.67,0,0,0-12.89-22.32c-1.43-2.07-2.9-4.12-4.59-6.3A44.15,44.15,0,0,0,654.64,291c-1.19,0-2.37.08-3.77.2-2.12.3-4.25.63-6.36,1a157.93,157.93,0,0,0-25.42,6.84A185.44,185.44,0,0,1,559,309.2c-19.95,0-38.37-3.33-54.72-9.89l-1-.19a158.77,158.77,0,0,0-25.57-6.9c-2.15-.39-4.3-.73-6.68-1.05-1.16-.1-2.32-.18-3.51-.18a44.3,44.3,0,0,0-33.24,15.15c-1.68,2.18-3.29,4.44-4.86,6.72a156.75,156.75,0,0,0-12.63,21.95c-17.86,36.88-48.14,67.31-81,81.4l-.8.5a157,157,0,0,0-21.88,12.55c-2.77,1.9-5.25,3.69-7.8,5.68a44.33,44.33,0,0,0-14.48,32.32v.23l0,.23c.51,4.44,1.21,8.94,2.11,13.38a158.28,158.28,0,0,0,6.12,22c13.45,38.64,13.53,81.55.24,114.79l-.19.93a156,156,0,0,0-6.4,23.34c-.8,4.16-1.43,8.22-1.9,12.41l0,.43a44.08,44.08,0,0,0,11.53,29.7l.42.4A159.47,159.47,0,0,0,316.37,695a155.17,155.17,0,0,0,18.57,10.35c36.8,17.8,67.23,48.08,81.37,81l.48.76A157.29,157.29,0,0,0,430,809.93q2,2.85,4.08,5.61c9,11.79,25.72,17.49,42.66,14.53A159.3,159.3,0,0,0,503.26,823a185.15,185.15,0,0,1,60-10.12c19.93,0,38.36,3.33,54.78,9.9l.22.19H619A157,157,0,0,0,645.73,830a44.58,44.58,0,0,0,5.29.79c1.34.12,2.67.18,4,.18a44.08,44.08,0,0,0,31.1-12.8l.3-.34c2.72-3.44,5.34-7,7.77-10.72a156.85,156.85,0,0,0,11.24-19.89c17.84-36.82,48.11-67.22,81-81.33l.69-.3.34-.34a156.31,156.31,0,0,0,18.08-10,159.41,159.41,0,0,0,13.31-9.62c8.82-7.07,12.83-17,12.26-30.41C830.63,645,827.6,634.49,824.92,625.23Zm-10.84,54.5a153.85,153.85,0,0,1-12.67,9.17,149,149,0,0,1-17.4,9.63,7.37,7.37,0,0,0-1.12.67c-34.28,14.91-65.75,46.55-84.29,84.81a149.1,149.1,0,0,1-10.71,19c-2.28,3.43-4.71,6.8-7.25,10a37,37,0,0,1-33.48,9.62,150.14,150.14,0,0,1-25.76-6.78,6.71,6.71,0,0,0-1.1-.26c-17.18-6.79-36.39-10.24-57.08-10.24a192.67,192.67,0,0,0-62.47,10.55l-.37.14a152.07,152.07,0,0,1-25,6.6c-11.63,2-27.07-.79-35.34-11.66-1.34-1.75-2.63-3.53-3.89-5.34a150.14,150.14,0,0,1-12.56-21.77,7.52,7.52,0,0,0-.54-.91c-14.92-34.38-46.61-65.9-84.88-84.4a149.67,149.67,0,0,1-17.7-9.87,153,153,0,0,1-12.67-9.22,36.51,36.51,0,0,1-9.38-24.21c.45-3.92,1-7.71,1.78-11.6a150.86,150.86,0,0,1,6.11-22.28,6.23,6.23,0,0,0,.28-1.11c13.75-34.81,13.64-79.47-.33-119.63a150.7,150.7,0,0,1-5.84-21c-.83-4.15-1.5-8.35-2-12.5a36.62,36.62,0,0,1,11.78-26.37c2.2-1.71,4.56-3.42,7.21-5.24a150.66,150.66,0,0,1,20.85-11.95,6.47,6.47,0,0,0,1-.58c34.31-14.87,65.83-46.55,84.39-84.89a151.12,151.12,0,0,1,12-20.93c1.5-2.18,3-4.32,4.46-6.2a36.68,36.68,0,0,1,27.41-12.39c1,0,1.94.07,2.68.13,2.06.29,4.11.61,6.15,1A151.35,151.35,0,0,1,501,306.29a7,7,0,0,0,1,.24c17.13,6.78,36.31,10.22,57,10.22a193.06,193.06,0,0,0,62.59-10.58,151.87,151.87,0,0,1,24.25-6.52c2-.37,4-.69,5.84-.95,1-.08,1.95-.15,2.94-.15A36.55,36.55,0,0,1,682,310.91c1.46,1.9,2.85,3.84,4.22,5.82a148.86,148.86,0,0,1,12.34,21.41,6.55,6.55,0,0,0,.71,1.16c14.89,34.27,46.55,65.75,84.82,84.3a148.9,148.9,0,0,1,17.75,9.91l1.25.81a74.6,74.6,0,0,1,10.44,7.62c6.55,6.07,10.09,15.17,9.72,24.93-.38,10.18-2.78,21.24-7.35,33.81a5.86,5.86,0,0,0-.31,1.25c-13.7,34.73-13.58,79.34.34,119.46.52,1.9,1.09,3.89,1.69,5.94,2.55,8.86,5.45,18.89,5.85,28.21C824,666.51,821,674.19,814.08,679.73Z" transform="translate(-290.88 -290.99)"/><path class="cls-1" d="M387,404.69l-2.53-2.88a149.24,149.24,0,0,1-11.91,9.47l2.23,3.11C378.92,411.43,383,408.16,387,404.69Z" transform="translate(-290.88 -290.99)"/><path class="cls-1" d="M321.46,515.83l-3.68,1c1.32,4.86,2.46,9.87,3.38,14.87l3.76-.69C324,525.91,322.82,520.81,321.46,515.83Z" transform="translate(-290.88 -290.99)"/><path class="cls-1" d="M317.91,617.75a4.75,4.75,0,0,0,.22-1c1.11-2.78,2.13-5.68,3.06-8.62L317.55,607c-.93,2.94-2,5.84-3.07,8.61l-.17.83q-.93,2.55-1.74,5.13l3.64,1.15C316.74,621.09,317.3,619.43,317.91,617.75Z" transform="translate(-290.88 -290.99)"/><path class="cls-1" d="M440.41,329.36l-3.17-2.14a147.61,147.61,0,0,0-8.07,13.35l3.37,1.8A141.59,141.59,0,0,1,440.41,329.36Z" transform="translate(-290.88 -290.99)"/><path class="cls-1" d="M462.94,311.56l-1-3.69a39.93,39.93,0,0,0-14.33,7.27l2.37,3A36.1,36.1,0,0,1,462.94,311.56Z" transform="translate(-290.88 -290.99)"/><path class="cls-1" d="M314.08,666.28,310.66,668a40.36,40.36,0,0,0,6.58,9.53c1.2,1,2.43,1.94,3.67,2.88l2.32-3c-1.21-.93-2.41-1.87-3.38-2.63A36.71,36.71,0,0,1,314.08,666.28Z" transform="translate(-290.88 -290.99)"/><path class="cls-1" d="M492.29,313.83l1-3.69c-3.71-1-7.55-1.83-11.39-2.54-1.29-.23-2.59-.44-3.88-.65l-.6,3.78c1.27.19,2.54.4,3.79.63C484.94,312.05,488.68,312.88,492.29,313.83Z" transform="translate(-290.88 -290.99)"/><path class="cls-1" d="M425.55,356.12l-3.36-1.82c-2.41,4.44-5.05,8.84-7.85,13.07l3.19,2.1C420.38,365.16,423.08,360.66,425.55,356.12Z" transform="translate(-290.88 -290.99)"/><path class="cls-1" d="M408.4,382.09l-3-2.37c-3.17,4-6.53,7.88-10,11.52l2.77,2.63C401.73,390.14,405.16,386.18,408.4,382.09Z" transform="translate(-290.88 -290.99)"/><path class="cls-1" d="M312.05,639.1l.34-1.64-3.75-.76-.33,1.68c-.75,3.86-1.34,7.67-1.8,11.85q0,1.11.06,2.19l3.82-.2c0-.66-.06-1.32-.07-1.78C310.76,646.58,311.33,642.87,312.05,639.1Z" transform="translate(-290.88 -290.99)"/><path class="cls-1" d="M321.25,592.29,325,593a152.4,152.4,0,0,0,2.17-15.45l-3.81-.34A150.4,150.4,0,0,1,321.25,592.29Z" transform="translate(-290.88 -290.99)"/><path class="cls-1" d="M797.68,607.16c1,3.84,2.23,7.7,3.54,11.48l.9,3.21,3.65-1.06c-.31-1.07-.61-2.12-1-3.42-1.27-3.67-2.44-7.44-3.46-11.2Z" transform="translate(-290.88 -290.99)"/><path class="cls-1" d="M309,487.2a146,146,0,0,0,4.12,15.05l3.62-1.2a143.7,143.7,0,0,1-4-14.67Z" transform="translate(-290.88 -290.99)"/><path class="cls-1" d="M794.15,530.47l3.73.72a133.11,133.11,0,0,1,3.68-14.63L798,515.42A136.25,136.25,0,0,0,794.15,530.47Z" transform="translate(-290.88 -290.99)"/><path class="cls-1" d="M706.89,366.09a127.36,127.36,0,0,1-7.42-13.24L696,354.51a135.12,135.12,0,0,0,7.64,13.64Z" transform="translate(-290.88 -290.99)"/><path class="cls-1" d="M725.77,389.9c-3.53-3.66-6.91-7.51-10-11.44l-3,2.39c3.2,4,6.66,8,10.29,11.71Z" transform="translate(-290.88 -290.99)"/><path class="cls-1" d="M812,471.47a37.68,37.68,0,0,0-3.62-15.6L805,457.52a33.89,33.89,0,0,1,3.24,14Z" transform="translate(-290.88 -290.99)"/><path class="cls-1" d="M810.43,487.07l-3.72-.71a120.75,120.75,0,0,1-3.81,14.57l3.61,1.18A122.36,122.36,0,0,0,810.43,487.07Z" transform="translate(-290.88 -290.99)"/><path class="cls-1" d="M313.56,457.45l-3.48-1.58a39.74,39.74,0,0,0-3.54,15.68l3.82.08A36,36,0,0,1,313.56,457.45Z" transform="translate(-290.88 -290.99)"/><path class="cls-1" d="M641.39,311.35l2-.36-.63-3.76-2.09.36c-4.43.81-8.85,1.82-13.15,3l1,3.68C632.76,313.12,637.07,312.13,641.39,311.35Z" transform="translate(-290.88 -290.99)"/><path class="cls-1" d="M614,319l-1.16-3.64c-4.81,1.54-9.76,2.88-14.71,4l.84,3.72C604,321.93,609.06,320.56,614,319Z" transform="translate(-290.88 -290.99)"/><path class="cls-1" d="M583.64,325.86l-.53-3.78c-5,.69-10.14,1.18-15.17,1.43l.19,3.82C573.28,327.06,578.49,326.57,583.64,325.86Z" transform="translate(-290.88 -290.99)"/><path class="cls-1" d="M689.2,340.83l3.35-1.84a151.7,151.7,0,0,0-8-12.92l-.22-.31-3.16,2.14.24.36A142.21,142.21,0,0,1,689.2,340.83Z" transform="translate(-290.88 -290.99)"/><path class="cls-1" d="M552.7,323.61c-5.12-.2-10.22-.65-15.16-1.33l-.52,3.78c5.06.7,10.28,1.16,15.53,1.37Z" transform="translate(-290.88 -290.99)"/><path class="cls-1" d="M673.47,314a39.62,39.62,0,0,0-14.65-6.6l-.84,3.73a36.12,36.12,0,0,1,13.26,6Z" transform="translate(-290.88 -290.99)"/><path class="cls-1" d="M522.62,319.38a122.45,122.45,0,0,1-14.46-4.59l-1.38,3.57a129.52,129.52,0,0,0,14.91,4.72Z" transform="translate(-290.88 -290.99)"/><path class="cls-1" d="M323.24,546.8c.48,5.06.73,10.17.76,15.22l3.82,0c0-5.16-.29-10.39-.78-15.56Z" transform="translate(-290.88 -290.99)"/><path class="cls-1" d="M798.21,443.51c-2.46-1.92-5.11-3.64-7.68-5.3l-1.19-.78c-1.34-.86-2.69-1.71-4.05-2.53l-2,3.24c1.33.81,2.65,1.63,3.95,2.48l1.2.78c2.49,1.61,5.07,3.28,7.41,5.1Z" transform="translate(-290.88 -290.99)"/><path class="cls-1" d="M809.84,635.66l-3.69.87a79.46,79.46,0,0,1,2.27,14.71l0,.58,3.79-.16,0-.54A82.6,82.6,0,0,0,809.84,635.66Z" transform="translate(-290.88 -290.99)"/><path class="cls-1" d="M647.06,811.57c-.67-.06-1.34-.14-2-.24l-.54,3.79c.73.1,1.47.19,2.21.25,1.19.11,2.39.16,3.58.16a40.25,40.25,0,0,0,10.25-1.32l-1-3.7A36.37,36.37,0,0,1,647.06,811.57Z" transform="translate(-290.88 -290.99)"/><path class="cls-1" d="M744.62,708.06l2.21,3.09A138.6,138.6,0,0,1,759.56,703l-1.85-3.32A143.74,143.74,0,0,0,744.62,708.06Z" transform="translate(-290.88 -290.99)"/><path class="cls-1" d="M676,801.16a36.3,36.3,0,0,1-3.37,3l2.34,3a40.42,40.42,0,0,0,3.87-3.42c2.22-2.81,4.37-5.75,6.41-8.74l-3.16-2.15C680.13,795.74,678,798.6,676,801.16Z" transform="translate(-290.88 -290.99)"/><path class="cls-1" d="M617,804.2l-1.29-.51-1.38,3.57,1.55.6.84.17c4,1.46,8.26,2.77,12.51,3.88l1-3.69c-4.13-1.09-8.23-2.36-12.24-3.81A4.49,4.49,0,0,0,617,804.2Z" transform="translate(-290.88 -290.99)"/><path class="cls-1" d="M332.4,433.81c-1.84,1.15-3.66,2.33-5.45,3.56-2.59,1.78-4.92,3.47-7.11,5.16l-.3.27,2.64,2.75c2.26-1.74,4.57-3.41,6.93-5q2.61-1.78,5.31-3.47Z" transform="translate(-290.88 -290.99)"/><path class="cls-1" d="M795.91,576.4l-3.78.35c.48,5.12,1.2,10.27,2.11,15.33l3.74-.68C797.08,586.45,796.38,581.41,795.91,576.4Z" transform="translate(-290.88 -290.99)"/><path class="cls-1" d="M724.31,728.32l2.78,2.62c3.51-3.71,7.19-7.27,11-10.57l-2.52-2.88C731.67,720.88,727.9,724.52,724.31,728.32Z" transform="translate(-290.88 -290.99)"/><path class="cls-1" d="M585,799.8a142,142,0,0,1,14.92,2.88l.93-3.7a144.19,144.19,0,0,0-15.33-3Z" transform="translate(-290.88 -290.99)"/><path class="cls-1" d="M771.48,692.8l1.64,3.42a144.86,144.86,0,0,0,13.59-7.47l-2-3.23A138.57,138.57,0,0,1,771.48,692.8Z" transform="translate(-290.88 -290.99)"/><path class="cls-1" d="M705,752.71l3.18,2.11c2.79-4.22,5.79-8.38,8.94-12.36l-3-2.37C710.9,744.16,707.83,748.4,705,752.71Z" transform="translate(-290.88 -290.99)"/><path class="cls-1" d="M736.85,400.37l-2.5,2.89c3.87,3.35,8,6.61,12.21,9.67l2.24-3.1C744.66,406.84,740.64,403.66,736.85,400.37Z" transform="translate(-290.88 -290.99)"/><path class="cls-1" d="M693.25,773.33q-1.54,3.3-3.26,6.48l3.37,1.81c1.16-2.18,2.28-4.41,3.34-6.65s2.37-4.75,3.63-7.08L697,766.07C695.69,768.45,694.45,770.86,693.25,773.33Z" transform="translate(-290.88 -290.99)"/><path class="cls-1" d="M758.33,420.37l-2,3.25c4.4,2.65,9,5.13,13.6,7.38l1.66-3.41C767.12,425.39,762.64,423,758.33,420.37Z" transform="translate(-290.88 -290.99)"/><path class="cls-1" d="M798.9,675.45l-1.8,1.43,2.33,3c.62-.49,1.24-1,1.85-1.47a27.91,27.91,0,0,0,8.36-10.93L806.15,666A24.25,24.25,0,0,1,798.9,675.45Z" transform="translate(-290.88 -290.99)"/><path class="cls-1" d="M795.15,560.45c0-4.82.21-9.63.63-14.29l-3.78-.34c-.42,4.78-.64,9.7-.64,14.66v.81h3.8Z" transform="translate(-290.88 -290.99)"/><path class="cls-1" d="M473,811.53h-.05a41.79,41.79,0,0,1-8.46-.85l-.77,3.74a45.7,45.7,0,0,0,9.22.93H473a46.59,46.59,0,0,0,6.71-.48l-.56-3.79A41.81,41.81,0,0,1,473,811.53Z" transform="translate(-290.88 -290.99)"/><path class="cls-1" d="M504.4,804.5c-3.41,1.24-6.94,2.35-10.48,3.33l1,3.68c3.63-1,7.25-2.15,10.89-3.47,1.27-.44,2.55-.87,3.85-1.28l-1.17-3.64C507.19,803.55,505.88,804,504.4,804.5Z" transform="translate(-290.88 -290.99)"/><path class="cls-1" d="M428.82,772.45c-.72-1.69-1.49-3.36-2.31-5l-3.43,1.68q1.23,2.53,2.33,5.08l.43.68c1.28,2.74,2.67,5.47,4.13,8.12l3.35-1.84c-1.42-2.58-2.77-5.24-4-7.93A5,5,0,0,0,428.82,772.45Z" transform="translate(-290.88 -290.99)"/><path class="cls-1" d="M523.53,799l.85,3.73c5-1.13,10-2,15-2.73l-.52-3.79C533.76,796.94,528.6,797.88,523.53,799Z" transform="translate(-290.88 -290.99)"/><path class="cls-1" d="M445.06,799.21c-1.28-1.68-2.52-3.39-3.95-5.39h0l-2.91,2.45c1.24,1.78,2.52,3.54,3.83,5.26a31.55,31.55,0,0,0,6.84,6.6l2.22-3.11A27.66,27.66,0,0,1,445.06,799.21Z" transform="translate(-290.88 -290.99)"/><path class="cls-1" d="M385.63,721.63c3.86,3.33,7.59,6.85,11.09,10.46l2.74-2.66c-3.57-3.69-7.38-7.29-11.33-10.7Z" transform="translate(-290.88 -290.99)"/><path class="cls-1" d="M406.78,743.52a147.72,147.72,0,0,1,8.86,12.35l3.21-2.06a147,147,0,0,0-9.09-12.67Z" transform="translate(-290.88 -290.99)"/><path class="cls-1" d="M359.74,419.44a122.5,122.5,0,0,1-11.56,5.71l-2.12,1.12,1.67,3.44,1.37-.65a5.38,5.38,0,0,0,.83-.5,126.41,126.41,0,0,0,11.67-5.79Z" transform="translate(-290.88 -290.99)"/><path class="cls-1" d="M333.79,689.18a148.7,148.7,0,0,0,13.77,7.39L349,693a142.38,142.38,0,0,1-13.24-7.11Z" transform="translate(-290.88 -290.99)"/><path class="cls-1" d="M554.35,794.76l.21,3.81c5.11-.26,10.23-.3,15.23-.1l.15-3.82C564.82,794.45,559.59,794.48,554.35,794.76Z" transform="translate(-290.88 -290.99)"/><path class="cls-1" d="M360.93,703.8c4.33,2.58,8.62,5.4,12.74,8.37l2.24-3.1c-4.22-3-8.59-5.92-13-8.56Z" transform="translate(-290.88 -290.99)"/><path class="cls-2" d="M445.88,556.36q8.73-4.64,8.73-16.25,0-15.87-21.31-18.54v-.21q17.59-2.88,17.59-17.48,0-9.48-7.41-13.48t-22.22-4H389.4v2h6.93V559H389.4v2h31.33Q437.14,561,445.88,556.36Zm-28.77-67.93h3.41q5.43,0,7.35,3.14t1.92,11v5q0,6.93-2.19,10.29c-1.45,2.23-4,3.35-7.72,3.35h-2.77Zm0,34.84h2.45q7.35,0,10.23,3.52t2.87,10.55V543q0,7.89-2.34,11.93t-8.2,4.05h-5Z" transform="translate(-290.88 -290.99)"/><path class="cls-2" d="M471.45,531.16a9.9,9.9,0,0,0,6.71-2.29,7,7,0,0,0,2.67-5.43,15.26,15.26,0,0,0-.85-5.38h-2.67a10.61,10.61,0,0,1-.64-3.57,3.17,3.17,0,0,1,1.55-2.78,6.2,6.2,0,0,1,3.46-1c2.13,0,3.57,1.16,4.32,3.46s1.11,6.84,1.11,13.59V536H484q-12.47,0-18.48,2.83t-6,10.39q0,12.9,15.77,12.89,5.32,0,8.1-1.92a11.43,11.43,0,0,0,4.15-6q1.92,7.88,14.71,7.88,7,0,10.12-3.51c2.06-2.35,3.23-6.64,3.52-12.9l-1.6-.1q-.64,11-4.26,11-3.11,0-3.1-5.54V529.35q0-11.51-4.84-15.82t-17.53-4.32q-22.28,0-22.27,13.11Q462.29,531.16,471.45,531.16Zm15.66,16.41a16.21,16.21,0,0,1-1.43,7.51c-1,1.81-2,2.72-3.09,2.72a2.2,2.2,0,0,1-2.24-1.6q-.59-1.59-.59-7.14v-1.7q0-9.71,6.61-9.7h.74Z" transform="translate(-290.88 -290.99)"/><polygon class="cls-2" points="260.91 270 290.54 270 290.54 268.09 286.7 268.09 268.27 231.96 280.95 221.2 288.41 221.2 288.41 219.28 267.42 219.28 267.42 221.2 277.43 221.2 253.46 241.13 251.75 241.77 251.75 190.09 225.64 190.09 225.64 192.01 231.93 192.01 231.93 268.09 226.07 268.09 226.07 270 256.65 270 256.65 268.09 251.75 268.09 251.75 243.9 253.77 243.37 265.82 268.09 260.91 268.09 260.91 270"/><path class="cls-2" d="M588.61,515.92q-7.73,6.72-7.73,19.34T587.76,555q6.87,7.08,20.62,7.08,10.54,0,15.82-4.26a22,22,0,0,0,7.3-11.93l-1.92-.32q-3.83,13.22-16.19,13.21-6.61,0-9.27-5.33t-2.67-15.77V533.5h30q1-24.29-23.23-24.29Q596.35,509.21,588.61,515.92Zm22.91-1.54q1,3.14,1,11.77v5.22h-11v-5.22q0-8.21,1.44-11.56t4.47-3.36A4,4,0,0,1,611.52,514.38Z" transform="translate(-290.88 -290.99)"/><path class="cls-2" d="M635.34,512.19h5.86v46.89h-5.86V561h33.24v-1.92H661V530.52a23.69,23.69,0,0,1,3-12.15q3-5.11,6.92-5.11,4.91,0,2.24,5.43h-3.83c-1.14,3.77-1,6.71.58,8.85s3.91,3.2,7.14,3.2,5.63-.93,7.2-2.78,2.34-4.49,2.34-7.93-1.05-6.12-3.14-8a11.77,11.77,0,0,0-8.16-2.82,14.64,14.64,0,0,0-8.95,2.93A14.41,14.41,0,0,0,661,520.5V510.27H635.34Z" transform="translate(-290.88 -290.99)"/><path class="cls-2" d="M727.93,512.19h7.14l-12.36,35.38-11.62-35.38h5.76v-1.92H686v1.92h4.36L708.53,561h9.38l-2.34,6.6q-3.09,8.85-6.5,13.16t-7.78,4.32a2.75,2.75,0,0,1-2.88-1.6,5.83,5.83,0,0,1,.22-4.05h3.73a14.51,14.51,0,0,0,.63-3.84q0-7.35-8.84-7.35a8.32,8.32,0,0,0-6.18,2.35q-2.34,2.34-2.34,6.82a9,9,0,0,0,3.62,7.35q3.62,2.88,9.91,2.87a15.21,15.21,0,0,0,10.65-4q4.38-4,7.89-14l19.93-57.44H743v-1.92h-15Z" transform="translate(-290.88 -290.99)"/><polygon class="cls-2" points="166.29 298.48 172.58 298.48 172.58 331.51 151.38 331.51 151.38 298.48 157.56 298.48 157.56 296.45 124.31 296.45 124.31 298.48 130.6 298.48 130.6 369.01 124.31 369.01 124.31 371.04 157.56 371.04 157.56 369.01 151.38 369.01 151.38 334.28 172.58 334.28 172.58 369.01 166.29 369.01 166.29 371.04 199.65 371.04 199.65 369.01 193.36 369.01 193.36 298.48 199.65 298.48 199.65 296.45 166.29 296.45 166.29 298.48"/><path class="cls-2" d="M522.49,610.24q-13.2,0-20.51,6.88t-7.3,19.6q0,12.74,6.82,19.56t20.14,6.82q27.08,0,27.07-27.18,0-13-6.5-19.34T522.49,610.24Zm5.76,30.8q0,11.94-1,15.34-1.27,4.8-5.44,4.8-3.4,0-4.58-2.56a24.61,24.61,0,0,1-1.44-3.83q-.69-2.35-.69-14v-8.31a81.12,81.12,0,0,1,1-14.61,8.23,8.23,0,0,1,2.08-4.42,5.38,5.38,0,0,1,3.78-1.33q4,0,5.17,4.74T528.25,632Z" transform="translate(-290.88 -290.99)"/><path class="cls-2" d="M608.16,611.31H583.44v1.92h4.9v32.6q0,5.86-2.13,9.17c-1.42,2.2-3,3.3-4.84,3.3a3.58,3.58,0,0,1-3.63-2q-.9-2-.9-8.42V611.31H551.05v1.92h6V645.3q0,17.81,16.51,17.8,6.62,0,10-2.29a14.05,14.05,0,0,0,5.06-6.56l1.17,7.78H614v-1.92h-5.87Z" transform="translate(-290.88 -290.99)"/><path class="cls-2" d="M659.2,644.82q0-9-5.86-13.05a35.76,35.76,0,0,0-6.07-3.25,79.71,79.71,0,0,0-10.44-3.14,16.12,16.12,0,0,1-2-.54c-.9-.28-1.55-.51-2-.69s-1-.43-1.59-.75a5.37,5.37,0,0,1-1.39-.9,16.68,16.68,0,0,1-1.17-1.33,3.83,3.83,0,0,1-.75-2.51,5.27,5.27,0,0,1,2.45-4.42c1.64-1.17,4.12-1.76,7.46-1.76q11.4,0,16.84,13.85H656V610h-1.17A12.54,12.54,0,0,1,653,612.8a2.45,2.45,0,0,1-1.81.75,9,9,0,0,1-3.09-.85,26.42,26.42,0,0,0-10.76-2.46q-8.54,0-13.64,5t-5.11,13.26q0,8.32,5.86,12.15a41.63,41.63,0,0,0,12.14,5.12,36,36,0,0,1,10.66,3.62,4.84,4.84,0,0,1,2.66,4.48q0,6.93-10.87,6.92A18.22,18.22,0,0,1,627.34,657q-4.68-3.72-7.46-13h-1.27V663.1h1.27q2.24-3.95,4.59-4a4.18,4.18,0,0,1,2,.85,28.27,28.27,0,0,0,12.79,3.1q9.27,0,14.59-4.64T659.2,644.82Z" transform="translate(-290.88 -290.99)"/><path class="cls-2" d="M706.25,658.83a22,22,0,0,0,7.3-11.93l-1.92-.32q-3.84,13.21-16.2,13.21-6.6,0-9.27-5.33t-2.66-15.77v-4.15h30q1-24.3-23.23-24.3-11.94,0-19.66,6.72t-7.73,19.34q0,12.62,6.88,19.71t20.61,7.09Q701,663.1,706.25,658.83ZM683.6,627.18c0-5.46.49-9.32,1.44-11.56s2.45-3.35,4.48-3.35a4,4,0,0,1,4.05,3.14q1,3.15,1,11.77v5.23h-11Z" transform="translate(-290.88 -290.99)"/><rect class="cls-2" x="517.87" y="723.34" width="85.22" height="4.14" transform="translate(-639.67 317.86) rotate(-45)"/><rect class="cls-2" x="517.87" y="392.38" width="85.22" height="4.14" transform="translate(-405.64 220.86) rotate(-45)"/></g></svg>